<mxfile host="app.diagrams.net" modified="2024-05-02T22:24:09.236Z" agent="Mozilla/5.0 (Windows NT 10.0; Win64; x64) AppleWebKit/537.36 (KHTML, like Gecko) Chrome/124.0.0.0 Safari/537.36 Edg/124.0.0.0" etag="m6sue1AYqeX6q7q-IETL" version="24.3.1" type="device">
  <diagram name="Page-1" id="1R7OJ3GxHw3j1f471XLp">
    <mxGraphModel dx="2026" dy="1153" grid="1" gridSize="10" guides="1" tooltips="1" connect="1" arrows="1" fold="1" page="1" pageScale="1" pageWidth="850" pageHeight="1100" math="0" shadow="0">
      <root>
        <mxCell id="0" />
        <mxCell id="1" parent="0" />
        <mxCell id="gqtEAW0lg3VKifiB6rGS-28" value="&lt;p style=&quot;margin:0px;margin-top:4px;text-align:center;&quot;&gt;&lt;br&gt;&lt;b&gt;&amp;lt;&amp;lt;subsystem&amp;gt;&amp;gt; Processing Server&lt;/b&gt;&lt;/p&gt;" style="verticalAlign=top;align=left;overflow=fill;html=1;whiteSpace=wrap;" vertex="1" parent="1">
          <mxGeometry x="570" y="280" width="290" height="360" as="geometry" />
        </mxCell>
        <mxCell id="gqtEAW0lg3VKifiB6rGS-2" value="&lt;div&gt;&lt;br&gt;&lt;/div&gt;:&lt;b&gt;Message Queue&lt;/b&gt;" style="html=1;dropTarget=0;whiteSpace=wrap;" vertex="1" parent="1">
          <mxGeometry x="320" y="415" width="180" height="90" as="geometry" />
        </mxCell>
        <mxCell id="gqtEAW0lg3VKifiB6rGS-3" value="" style="shape=module;jettyWidth=8;jettyHeight=4;" vertex="1" parent="gqtEAW0lg3VKifiB6rGS-2">
          <mxGeometry x="1" width="20" height="20" relative="1" as="geometry">
            <mxPoint x="-27" y="7" as="offset" />
          </mxGeometry>
        </mxCell>
        <mxCell id="gqtEAW0lg3VKifiB6rGS-4" value="&lt;div&gt;&lt;br&gt;&lt;/div&gt;:&lt;b&gt;Data Capture Service&lt;/b&gt;" style="html=1;dropTarget=0;whiteSpace=wrap;" vertex="1" parent="1">
          <mxGeometry x="60" y="300" width="180" height="90" as="geometry" />
        </mxCell>
        <mxCell id="gqtEAW0lg3VKifiB6rGS-5" value="" style="shape=module;jettyWidth=8;jettyHeight=4;" vertex="1" parent="gqtEAW0lg3VKifiB6rGS-4">
          <mxGeometry x="1" width="20" height="20" relative="1" as="geometry">
            <mxPoint x="-27" y="7" as="offset" />
          </mxGeometry>
        </mxCell>
        <mxCell id="gqtEAW0lg3VKifiB6rGS-6" value="&lt;div&gt;&lt;br&gt;&lt;/div&gt;:&lt;b&gt;Data Capture Service&lt;/b&gt;" style="html=1;dropTarget=0;whiteSpace=wrap;" vertex="1" parent="1">
          <mxGeometry x="60" y="415" width="180" height="90" as="geometry" />
        </mxCell>
        <mxCell id="gqtEAW0lg3VKifiB6rGS-7" value="" style="shape=module;jettyWidth=8;jettyHeight=4;" vertex="1" parent="gqtEAW0lg3VKifiB6rGS-6">
          <mxGeometry x="1" width="20" height="20" relative="1" as="geometry">
            <mxPoint x="-27" y="7" as="offset" />
          </mxGeometry>
        </mxCell>
        <mxCell id="gqtEAW0lg3VKifiB6rGS-8" value="&lt;div&gt;&lt;br&gt;&lt;/div&gt;:&lt;b&gt;Data Capture Service&lt;/b&gt;" style="html=1;dropTarget=0;whiteSpace=wrap;" vertex="1" parent="1">
          <mxGeometry x="60" y="530" width="180" height="90" as="geometry" />
        </mxCell>
        <mxCell id="gqtEAW0lg3VKifiB6rGS-9" value="" style="shape=module;jettyWidth=8;jettyHeight=4;" vertex="1" parent="gqtEAW0lg3VKifiB6rGS-8">
          <mxGeometry x="1" width="20" height="20" relative="1" as="geometry">
            <mxPoint x="-27" y="7" as="offset" />
          </mxGeometry>
        </mxCell>
        <mxCell id="gqtEAW0lg3VKifiB6rGS-12" value="" style="rounded=0;orthogonalLoop=1;jettySize=auto;html=1;endArrow=halfCircle;endFill=0;endSize=6;strokeWidth=1;sketch=0;exitX=1;exitY=0.5;exitDx=0;exitDy=0;" edge="1" parent="1" source="gqtEAW0lg3VKifiB6rGS-6">
          <mxGeometry relative="1" as="geometry">
            <mxPoint x="615" y="585" as="sourcePoint" />
            <mxPoint x="280" y="460" as="targetPoint" />
          </mxGeometry>
        </mxCell>
        <mxCell id="gqtEAW0lg3VKifiB6rGS-13" value="" style="rounded=0;orthogonalLoop=1;jettySize=auto;html=1;endArrow=oval;endFill=0;sketch=0;sourcePerimeterSpacing=0;targetPerimeterSpacing=0;endSize=10;exitX=0;exitY=0.5;exitDx=0;exitDy=0;" edge="1" parent="1" source="gqtEAW0lg3VKifiB6rGS-2">
          <mxGeometry relative="1" as="geometry">
            <mxPoint x="575" y="585" as="sourcePoint" />
            <mxPoint x="280" y="460" as="targetPoint" />
          </mxGeometry>
        </mxCell>
        <mxCell id="gqtEAW0lg3VKifiB6rGS-10" value="&lt;div&gt;&lt;br&gt;&lt;/div&gt;:&lt;b&gt;Processing Service&lt;/b&gt;" style="html=1;dropTarget=0;whiteSpace=wrap;" vertex="1" parent="1">
          <mxGeometry x="630" y="415" width="180" height="90" as="geometry" />
        </mxCell>
        <mxCell id="gqtEAW0lg3VKifiB6rGS-11" value="" style="shape=module;jettyWidth=8;jettyHeight=4;" vertex="1" parent="gqtEAW0lg3VKifiB6rGS-10">
          <mxGeometry x="1" width="20" height="20" relative="1" as="geometry">
            <mxPoint x="-27" y="7" as="offset" />
          </mxGeometry>
        </mxCell>
        <mxCell id="gqtEAW0lg3VKifiB6rGS-14" value="" style="ellipse;whiteSpace=wrap;html=1;align=center;aspect=fixed;fillColor=none;strokeColor=none;resizable=0;perimeter=centerPerimeter;rotatable=0;allowArrows=0;points=[];outlineConnect=1;" vertex="1" parent="1">
          <mxGeometry x="590" y="580" width="10" height="10" as="geometry" />
        </mxCell>
        <mxCell id="gqtEAW0lg3VKifiB6rGS-15" value="" style="rounded=0;orthogonalLoop=1;jettySize=auto;html=1;endArrow=halfCircle;endFill=0;endSize=6;strokeWidth=1;sketch=0;exitX=1;exitY=0.5;exitDx=0;exitDy=0;" edge="1" parent="1" source="gqtEAW0lg3VKifiB6rGS-8">
          <mxGeometry relative="1" as="geometry">
            <mxPoint x="250" y="470" as="sourcePoint" />
            <mxPoint x="290" y="510" as="targetPoint" />
          </mxGeometry>
        </mxCell>
        <mxCell id="gqtEAW0lg3VKifiB6rGS-22" value="Message" style="edgeLabel;html=1;align=center;verticalAlign=middle;resizable=0;points=[];" vertex="1" connectable="0" parent="gqtEAW0lg3VKifiB6rGS-15">
          <mxGeometry x="0.3279" y="-4" relative="1" as="geometry">
            <mxPoint y="-1" as="offset" />
          </mxGeometry>
        </mxCell>
        <mxCell id="gqtEAW0lg3VKifiB6rGS-16" value="" style="rounded=0;orthogonalLoop=1;jettySize=auto;html=1;endArrow=oval;endFill=0;sketch=0;sourcePerimeterSpacing=0;targetPerimeterSpacing=0;endSize=10;exitX=0;exitY=0.5;exitDx=0;exitDy=0;" edge="1" parent="1" source="gqtEAW0lg3VKifiB6rGS-2">
          <mxGeometry relative="1" as="geometry">
            <mxPoint x="330" y="470" as="sourcePoint" />
            <mxPoint x="290" y="510" as="targetPoint" />
          </mxGeometry>
        </mxCell>
        <mxCell id="gqtEAW0lg3VKifiB6rGS-17" value="" style="rounded=0;orthogonalLoop=1;jettySize=auto;html=1;endArrow=halfCircle;endFill=0;endSize=6;strokeWidth=1;sketch=0;exitX=1;exitY=0.5;exitDx=0;exitDy=0;" edge="1" parent="1" source="gqtEAW0lg3VKifiB6rGS-4">
          <mxGeometry relative="1" as="geometry">
            <mxPoint x="260" y="480" as="sourcePoint" />
            <mxPoint x="290" y="420" as="targetPoint" />
          </mxGeometry>
        </mxCell>
        <mxCell id="gqtEAW0lg3VKifiB6rGS-23" value="Message" style="edgeLabel;html=1;align=center;verticalAlign=middle;resizable=0;points=[];" vertex="1" connectable="0" parent="gqtEAW0lg3VKifiB6rGS-17">
          <mxGeometry x="0.1138" y="-2" relative="1" as="geometry">
            <mxPoint as="offset" />
          </mxGeometry>
        </mxCell>
        <mxCell id="gqtEAW0lg3VKifiB6rGS-18" value="" style="rounded=0;orthogonalLoop=1;jettySize=auto;html=1;endArrow=oval;endFill=0;sketch=0;sourcePerimeterSpacing=0;targetPerimeterSpacing=0;endSize=10;exitX=0;exitY=0.5;exitDx=0;exitDy=0;" edge="1" parent="1" source="gqtEAW0lg3VKifiB6rGS-2">
          <mxGeometry relative="1" as="geometry">
            <mxPoint x="340" y="480" as="sourcePoint" />
            <mxPoint x="290" y="420" as="targetPoint" />
          </mxGeometry>
        </mxCell>
        <mxCell id="gqtEAW0lg3VKifiB6rGS-19" value="" style="rounded=0;orthogonalLoop=1;jettySize=auto;html=1;endArrow=halfCircle;endFill=0;endSize=6;strokeWidth=1;sketch=0;exitX=1;exitY=0.5;exitDx=0;exitDy=0;" edge="1" parent="1" source="gqtEAW0lg3VKifiB6rGS-2">
          <mxGeometry relative="1" as="geometry">
            <mxPoint x="270" y="490" as="sourcePoint" />
            <mxPoint x="530" y="460" as="targetPoint" />
          </mxGeometry>
        </mxCell>
        <mxCell id="gqtEAW0lg3VKifiB6rGS-20" value="" style="rounded=0;orthogonalLoop=1;jettySize=auto;html=1;endArrow=oval;endFill=0;sketch=0;sourcePerimeterSpacing=0;targetPerimeterSpacing=0;endSize=10;exitX=0;exitY=0.5;exitDx=0;exitDy=0;exitPerimeter=0;" edge="1" parent="1" source="gqtEAW0lg3VKifiB6rGS-32">
          <mxGeometry relative="1" as="geometry">
            <mxPoint x="550" y="460" as="sourcePoint" />
            <mxPoint x="530" y="460" as="targetPoint" />
          </mxGeometry>
        </mxCell>
        <mxCell id="gqtEAW0lg3VKifiB6rGS-31" value="" style="html=1;verticalAlign=bottom;endArrow=open;dashed=1;endSize=8;curved=0;rounded=0;exitX=1;exitY=0.5;exitDx=0;exitDy=0;entryX=0;entryY=0.5;entryDx=0;entryDy=0;" edge="1" parent="1" source="gqtEAW0lg3VKifiB6rGS-32" target="gqtEAW0lg3VKifiB6rGS-10">
          <mxGeometry x="-0.0087" relative="1" as="geometry">
            <mxPoint x="900" y="590" as="sourcePoint" />
            <mxPoint x="820" y="590" as="targetPoint" />
            <mxPoint as="offset" />
          </mxGeometry>
        </mxCell>
        <mxCell id="gqtEAW0lg3VKifiB6rGS-32" value="" style="html=1;whiteSpace=wrap;" vertex="1" parent="1">
          <mxGeometry x="560" y="450" width="20" height="20" as="geometry" />
        </mxCell>
      </root>
    </mxGraphModel>
  </diagram>
</mxfile>
